<svg width="40" height="10" viewBox="0 0 40 10" fill="#2D8CFF" xmlns="http://www.w3.org/2000/svg">
<path fill-rule="evenodd" clip-rule="evenodd" d="M32.143 3.25102C32.2916 3.50751 32.3403 3.79933 32.3563 4.1274L32.3774 4.56467V7.62238L32.399 8.06011C32.4421 8.77498 32.9693 9.30357 33.6897 9.34853L34.1251 9.3701V4.56467L34.1467 4.1274C34.1646 3.803 34.2128 3.50567 34.3637 3.24735C34.5176 2.98238 34.7384 2.76255 35.004 2.60992C35.2697 2.45729 35.5708 2.37724 35.8772 2.37779C36.1836 2.37835 36.4844 2.4595 36.7495 2.6131C37.0146 2.76669 37.2346 2.98733 37.3875 3.25285C37.5361 3.50934 37.5825 3.80667 37.6004 4.1274L37.6219 4.5633V7.62238L37.6435 8.06011C37.6885 8.77865 38.2116 9.30724 38.9342 9.34853L39.3697 9.3701V4.1274C39.3697 3.20035 39.0015 2.31125 38.3461 1.65559C37.6907 0.999937 36.8017 0.631411 35.8747 0.631046C35.3785 0.630523 34.8879 0.735893 34.4357 0.940117C33.9835 1.14434 33.5801 1.44272 33.2524 1.81531C32.9246 1.44286 32.5212 1.14456 32.069 0.940275C31.6168 0.735991 31.1263 0.630416 30.6302 0.630587C29.9043 0.630587 29.2307 0.85083 28.6727 1.23121C28.3323 0.851288 27.5706 0.630587 27.1333 0.630587V9.3701L27.5706 9.34853C28.302 9.30035 28.8306 8.78599 28.859 8.06011L28.8824 7.62238V4.56467L28.904 4.1274C28.9224 3.79749 28.9682 3.50751 29.1174 3.24918C29.2713 2.98438 29.492 2.7646 29.7575 2.61179C30.023 2.45897 30.3239 2.37846 30.6302 2.37831C30.9367 2.37837 31.2378 2.45904 31.5033 2.61221C31.7689 2.76539 31.9894 2.98569 32.143 3.25102ZM2.22526 9.34899L2.66253 9.3701H9.21705L9.19548 8.9342C9.13629 8.21566 8.62744 7.69075 7.9066 7.64394L7.46933 7.62238H3.53708L8.77978 2.37785L8.75821 1.94241C8.72426 1.21652 8.19384 0.692071 7.46933 0.652152L7.03206 0.632422L0.477539 0.630587L0.499105 1.06786C0.556459 1.77952 1.07265 2.31544 1.78752 2.35674L2.22526 2.37831H6.15751L0.914813 7.62284L0.936378 8.06011C0.979509 8.78049 1.49937 9.30219 2.22526 9.34853V9.34899ZM25.4177 1.90983C25.8236 2.31559 26.1455 2.79733 26.3652 3.32752C26.5848 3.85772 26.6979 4.42599 26.6979 4.99988C26.6979 5.57378 26.5848 6.14205 26.3652 6.67224C26.1455 7.20244 25.8236 7.68418 25.4177 8.08994C24.5978 8.90922 23.4861 9.36943 22.327 9.36943C21.1679 9.36943 20.0562 8.90922 19.2363 8.08994C17.5298 6.38351 17.5298 3.61625 19.2363 1.90983C19.6417 1.50421 20.1231 1.18242 20.653 0.962848C21.1828 0.743276 21.7507 0.630218 22.3242 0.630128C22.8987 0.629729 23.4676 0.742589 23.9984 0.962251C24.5292 1.18191 25.0115 1.50407 25.4177 1.91029V1.90983ZM24.1812 3.14732C24.6727 3.6392 24.9488 4.30612 24.9488 5.00149C24.9488 5.69686 24.6727 6.36377 24.1812 6.85566C23.6893 7.34717 23.0224 7.62327 22.327 7.62327C21.6316 7.62327 20.9647 7.34717 20.4728 6.85566C19.9813 6.36377 19.7052 5.69686 19.7052 5.00149C19.7052 4.30612 19.9813 3.6392 20.4728 3.14732C20.9647 2.65581 21.6316 2.37971 22.327 2.37971C23.0224 2.37971 23.6893 2.65581 24.1812 3.14732ZM13.153 0.630128C13.7265 0.630278 14.2945 0.743409 14.8243 0.96306C15.3541 1.18271 15.8355 1.50458 16.241 1.91029C17.9478 3.61625 17.9478 6.38397 16.241 8.08994C15.421 8.90922 14.3093 9.36943 13.1502 9.36943C11.9911 9.36943 10.8794 8.90922 10.0595 8.08994C8.35305 6.38351 8.35305 3.61625 10.0595 1.90983C10.465 1.50421 10.9464 1.18242 11.4762 0.962848C12.006 0.743276 12.5739 0.630218 13.1475 0.630128H13.153ZM15.0044 3.1464C15.496 3.63831 15.7722 4.30532 15.7722 5.0008C15.7722 5.69628 15.496 6.3633 15.0044 6.8552C14.5125 7.34671 13.8456 7.62281 13.1502 7.62281C12.4549 7.62281 11.7879 7.34671 11.2961 6.8552C10.8045 6.36331 10.5284 5.6964 10.5284 5.00103C10.5284 4.30566 10.8045 3.63875 11.2961 3.14686C11.7879 2.65535 12.4549 2.37925 13.1502 2.37925C13.8456 2.37925 14.5125 2.65535 15.0044 3.14686V3.1464Z" fill="#2D8CFF"/>
</svg>
