     <svg
                width="12"
                height="14"
                viewBox="0 0 12 14"
                fill="none"
                xmlns="http://www.w3.org/2000/svg"
              >
                <path
                  d="M10 10.0239C10.5417 10.0239 11 10.2218 11.375 10.6177C11.75 10.9927 11.9375 11.451 11.9375 11.9927C11.9375 12.5135 11.75 12.9614 11.375 13.3364C11 13.7323 10.5417 13.9302 10 13.9302C9.45833 13.9302 9 13.7323 8.625 13.3364C8.25 12.9614 8.0625 12.5031 8.0625 11.9614C8.0625 11.8364 8.07292 11.6906 8.09375 11.5239L3.375 8.77393C2.97917 9.12809 2.52083 9.30518 2 9.30518C1.4375 9.30518 0.958333 9.11768 0.5625 8.74268C0.1875 8.34684 0 7.86768 0 7.30518C0 6.74268 0.1875 6.27393 0.5625 5.89893C0.958333 5.50309 1.4375 5.30518 2 5.30518C2.52083 5.30518 2.97917 5.48226 3.375 5.83643L8.0625 3.11768C8.02083 2.93018 8 2.77393 8 2.64893C8 2.08643 8.1875 1.61768 8.5625 1.24268C8.95833 0.846842 9.4375 0.648926 10 0.648926C10.5625 0.648926 11.0312 0.846842 11.4062 1.24268C11.8021 1.61768 12 2.08643 12 2.64893C12 3.19059 11.8021 3.65934 11.4062 4.05518C11.0312 4.45101 10.5625 4.64893 10 4.64893C9.47917 4.64893 9.02083 4.46143 8.625 4.08643L3.9375 6.83643C3.97917 7.02393 4 7.18018 4 7.30518C4 7.43018 3.97917 7.58643 3.9375 7.77393L8.6875 10.5239C9.0625 10.1906 9.5 10.0239 10 10.0239Z"
                  fill="#414141"
                />
              </svg>